<svg width="70" height="70" viewBox="0 0 70 70" fill="none" xmlns="http://www.w3.org/2000/svg">
<g filter="url(#filter0_di_138_21)">
<circle cx="35" cy="35" r="25" transform="rotate(180 35 35)" fill="#F7EFE4"/>
<path d="M35.5235 29.4375L29.5469 34.6234C29.4928 34.6703 29.4495 34.7282 29.4197 34.7933C29.39 34.8584 29.3746 34.9292 29.3746 35.0007C29.3746 35.0723 29.39 35.143 29.4197 35.2081C29.4495 35.2732 29.4928 35.3312 29.5469 35.3781L35.5235 40.5625C35.5415 40.5781 35.5636 40.5883 35.5873 40.5917C35.6109 40.5952 35.635 40.5917 35.6567 40.5819C35.6785 40.572 35.6969 40.5561 35.7098 40.536C35.7228 40.5159 35.7297 40.4926 35.7297 40.4687L35.7297 39.2031C35.7297 39.1312 35.6985 39.0625 35.6438 39.014L31.7016 35.5937L40.5 35.5937C40.5688 35.5937 40.625 35.5375 40.625 35.4687L40.625 34.5312C40.625 34.4625 40.5688 34.4062 40.5 34.4062L31.7016 34.4062L35.6438 30.9859C35.6985 30.939 35.7297 30.8703 35.7297 30.7968L35.7297 29.5312C35.7297 29.425 35.6047 29.3671 35.5235 29.4375Z" fill="black"/>
</g>
<defs>
<filter id="filter0_di_138_21" x="-4" y="0" width="78" height="78" filterUnits="userSpaceOnUse" color-interpolation-filters="sRGB">
<feFlood flood-opacity="0" result="BackgroundImageFix"/>
<feColorMatrix in="SourceAlpha" type="matrix" values="0 0 0 0 0 0 0 0 0 0 0 0 0 0 0 0 0 0 127 0" result="hardAlpha"/>
<feOffset dy="4"/>
<feGaussianBlur stdDeviation="2"/>
<feComposite in2="hardAlpha" operator="out"/>
<feColorMatrix type="matrix" values="0 0 0 0 0 0 0 0 0 0 0 0 0 0 0 0 0 0 0.25 0"/>
<feBlend mode="normal" in2="BackgroundImageFix" result="effect1_dropShadow_138_21"/>
<feBlend mode="normal" in="SourceGraphic" in2="effect1_dropShadow_138_21" result="shape"/>
<feColorMatrix in="SourceAlpha" type="matrix" values="0 0 0 0 0 0 0 0 0 0 0 0 0 0 0 0 0 0 127 0" result="hardAlpha"/>
<feOffset dy="4"/>
<feGaussianBlur stdDeviation="2"/>
<feComposite in2="hardAlpha" operator="arithmetic" k2="-1" k3="1"/>
<feColorMatrix type="matrix" values="0 0 0 0 0 0 0 0 0 0 0 0 0 0 0 0 0 0 0.25 0"/>
<feBlend mode="normal" in2="shape" result="effect2_innerShadow_138_21"/>
</filter>
</defs>
</svg>
