<svg width="16" height="20" viewBox="0 0 16 20" fill="none" xmlns="http://www.w3.org/2000/svg">
<path d="M13.5001 4.49998H11.6667C11.6667 2.47415 10.0259 0.833313 8.00008 0.833313C5.97425 0.833313 4.33341 2.47415 4.33341 4.49998H2.50008C1.49175 4.49998 0.666748 5.32498 0.666748 6.33331V17.3333C0.666748 18.3416 1.49175 19.1666 2.50008 19.1666H13.5001C14.5084 19.1666 15.3334 18.3416 15.3334 17.3333V6.33331C15.3334 5.32498 14.5084 4.49998 13.5001 4.49998ZM8.00008 2.66665C9.00841 2.66665 9.83341 3.49165 9.83341 4.49998H6.16675C6.16675 3.49165 6.99175 2.66665 8.00008 2.66665ZM13.5001 17.3333H2.50008V6.33331H4.33341V8.16665C4.33341 8.67081 4.74591 9.08331 5.25008 9.08331C5.75425 9.08331 6.16675 8.67081 6.16675 8.16665V6.33331H9.83341V8.16665C9.83341 8.67081 10.2459 9.08331 10.7501 9.08331C11.2542 9.08331 11.6667 8.67081 11.6667 8.16665V6.33331H13.5001V17.3333Z" fill="#CCC2C2"/>
</svg>
