<svg width="16" height="20" viewBox="0 0 16 20" fill="none" xmlns="http://www.w3.org/2000/svg">
<path d="M11.6666 5.41667C11.6666 6.38913 11.2803 7.32176 10.5926 8.00939C9.90501 8.69703 8.97238 9.08333 7.99992 9.08333C7.02746 9.08333 6.09483 8.69703 5.40719 8.00939C4.71956 7.32176 4.33325 6.38913 4.33325 5.41667C4.33325 4.44421 4.71956 3.51158 5.40719 2.82394C6.09483 2.13631 7.02746 1.75 7.99992 1.75C8.97238 1.75 9.90501 2.13631 10.5926 2.82394C11.2803 3.51158 11.6666 4.44421 11.6666 5.41667V5.41667Z" stroke="#CCC2C2" stroke-width="2" stroke-linecap="round" stroke-linejoin="round"/>
<path d="M7.99992 11.8333C6.29811 11.8333 4.66601 12.5094 3.46265 13.7127C2.25929 14.9161 1.58325 16.5482 1.58325 18.25H14.4166C14.4166 16.5482 13.7405 14.9161 12.5372 13.7127C11.3338 12.5094 9.70173 11.8333 7.99992 11.8333V11.8333Z" stroke="#CCC2C2" stroke-width="2" stroke-linecap="round" stroke-linejoin="round"/>
</svg>
